<svg xmlns="http://www.w3.org/2000/svg" viewBox="0 0 27.53 24.89"><defs><style>.cls-1{fill:#bc000a;}.cls-2{fill:#008e2b;}.cls-3{fill:#0095a5;}.cls-4{fill:#e8b100;}</style></defs><g id="Camada_2" data-name="Camada 2"><g id="Camada_1-2" data-name="Camada 1"><path class="cls-1" d="M1,12.51A14.3,14.3,0,0,1,0,7.14C0,4.58,1.44,0,6.82,0a8.49,8.49,0,0,1,6.76,3.35s-.08,2,.43,2,.73-.8,1.28-.81,1.12.84,1.12,1.89c0,.83-.43,1.58-1,1.57-.38,0-1-.65-1.39-.64s-.4.76-.4.76v4.28Z"/><path class="cls-2" d="M19.47,12.81c0,.38.61.55.61,1.21s-.86,1-1.87,1c-.48,0-1.75-.08-1.75-1,0-.55.73-.65.72-1.21,0-.13-.11-.23-.26-.29H13.64l.09,4s0,.89-.38,1-1-.6-1.8-.56-.66,1.11-.66,1.52c0,.88.32,1.77.92,1.79s.78-.78,1.3-.77.62,1.3.62,1.3v.36h0l.18,3.73s6.27-3.88,8.43-6.08a18.14,18.14,0,0,0,4.17-6.26H19.88C19.65,12.58,19.47,12.67,19.47,12.81Z"/><path class="cls-3" d="M1.08,12.81l5.53-.22s1-.05,1-.47-.73-.59-.74-1.23.83-1.18,2-1.18,1.63.42,1.62,1.14-.62.77-.6,1.2.85.38.85.38h2.94l.09,4.13s0,.89-.38,1-1.05-.6-1.8-.56-.66,1.11-.66,1.52c0,.88.32,1.77.92,1.79s.78-.78,1.3-.77.62,1.3.62,1.3l-.09,3.67S8.4,21.87,5.57,19.08A20.09,20.09,0,0,1,1.08,12.81Z"/><path class="cls-4" d="M20.78,0a7.86,7.86,0,0,0-7,3.51V5.13c.06.14.14.22.24.22.44,0,.74-.8,1.28-.81s1.12.84,1.12,1.89c0,.83-.43,1.58-1,1.57-.38,0-1-.65-1.39-.64a.35.35,0,0,0-.28.17v4.85h2.06c.53,0,1.39,0,1.39.44,0,.56-.72.66-.72,1.21,0,.94,1.27,1,1.75,1,1,0,1.86-.45,1.87-1s-.62-.83-.61-1.21.83-.38,1.12-.38h6a15.41,15.41,0,0,0,.92-5.08C27.53,4.82,25.63,0,20.78,0Z"/></g></g></svg>