<svg xmlns="http://www.w3.org/2000/svg" viewBox="0 0 69.7 28.94" fill="#373737"><g id="Layer_2" data-name="Layer 2"><g id="Layer_1-2" data-name="Layer 1"><polygon points="0 2.51 3.33 2.51 3.33 11.71 5.57 11.71 5.57 2.51 8.92 2.51 8.92 0.71 0 0.71 0 2.51"/><path d="M11.71,5.41a3.64,3.64,0,0,1,.77-.33A3.09,3.09,0,0,1,13.37,5a1.73,1.73,0,0,1,1.31.45,1.88,1.88,0,0,1,.44,1.38v4.93h2.1V6.41a3.84,3.84,0,0,0-.39-1.88,2.31,2.31,0,0,0-1.08-1,3.92,3.92,0,0,0-1.63-.31,4.84,4.84,0,0,0-1.69.31,7.89,7.89,0,0,0-.72.33V0H9.61V11.71h2.08Z"/><path d="M20.2,11.45a4.42,4.42,0,0,0,2.16.51A8.41,8.41,0,0,0,24,11.8a7.47,7.47,0,0,0,1.31-.41V9.55c-.19.09-.42.18-.69.28a6.85,6.85,0,0,1-.87.25,4,4,0,0,1-1,.11,2.4,2.4,0,0,1-1.87-.68,2.55,2.55,0,0,1-.57-1.45H26a7.58,7.58,0,0,0-.37-2.61,3.46,3.46,0,0,0-1.22-1.69,3.69,3.69,0,0,0-2.2-.59A3.81,3.81,0,0,0,19.3,4.31a4.76,4.76,0,0,0-1.05,3.32A4.89,4.89,0,0,0,18.77,10,3.39,3.39,0,0,0,20.2,11.45Zm1-6.4a1.86,1.86,0,0,1,1-.25,1.56,1.56,0,0,1,1.34.57,2.71,2.71,0,0,1,.42,1.28H20.39a3,3,0,0,1,.17-.75A1.62,1.62,0,0,1,21.2,5.05Z"/><path d="M29.15,5.1c.2,0,.44-.06.71-.09l.84,0a8,8,0,0,1,.85,0l.75.08V3.5a1.68,1.68,0,0,0-.55-.23,4,4,0,0,0-.95-.09,6.86,6.86,0,0,0-1.56.19,8.71,8.71,0,0,0-1.36.44,5.21,5.21,0,0,0-.82.4v7.5h2.09Z"/><path d="M40.07,10V6a3,3,0,0,0-.21-1.18A2.54,2.54,0,0,0,39.28,4a2.9,2.9,0,0,0-.8-.5,4,4,0,0,0-.92-.26,4.81,4.81,0,0,0-.9-.09,7.9,7.9,0,0,0-1.92.22,4.8,4.8,0,0,0-1.33.49v1.9a3.75,3.75,0,0,1,1.2-.62,4.73,4.73,0,0,1,1.45-.24,2.4,2.4,0,0,1,1.44.37A1.36,1.36,0,0,1,38,6.48v.67A2.85,2.85,0,0,0,37.66,7a4,4,0,0,0-.92-.29,5.49,5.49,0,0,0-1.11-.11,4,4,0,0,0-1.64.3,2.32,2.32,0,0,0-1,.89,2.81,2.81,0,0,0-.35,1.43,2.87,2.87,0,0,0,.29,1.35,2.28,2.28,0,0,0,.79.84,3.35,3.35,0,0,0,1.12.43,6.14,6.14,0,0,0,1.32.14,10.38,10.38,0,0,0,2.06-.18,2.85,2.85,0,0,0,1.37-.61A1.52,1.52,0,0,0,40.07,10Zm-2.46.34a5.14,5.14,0,0,1-1.32.12,1.92,1.92,0,0,1-.75-.14,1.43,1.43,0,0,1-.6-.41,1,1,0,0,1-.23-.68,1,1,0,0,1,.43-.88A2.39,2.39,0,0,1,36.44,8a4.81,4.81,0,0,1,1.17.14l.4.14V9.76A.51.51,0,0,1,37.61,10.3Z"/><path d="M47.44,3.58a5,5,0,0,0-2.11-.41,8.92,8.92,0,0,0-1.39.1,5.76,5.76,0,0,0-1.21.33,2.34,2.34,0,0,0-.85.59,1.27,1.27,0,0,0-.33.89v9.78h2.07V11.49a1.8,1.8,0,0,0,.37.17,4.82,4.82,0,0,0,.95.22,6.45,6.45,0,0,0,.75.06,3.74,3.74,0,0,0,2-.53A3.42,3.42,0,0,0,49,9.92a5.41,5.41,0,0,0,.44-2.25A5.65,5.65,0,0,0,48.91,5,3.06,3.06,0,0,0,47.44,3.58ZM47.1,9.09a1.74,1.74,0,0,1-.72.87,2.38,2.38,0,0,1-1.21.28,2.77,2.77,0,0,1-.78-.11,3.42,3.42,0,0,1-.77-.3V5.56c0-.2.14-.35.42-.46a3.48,3.48,0,0,1,1.22-.17,2.07,2.07,0,0,1,1.28.34,1.74,1.74,0,0,1,.63,1,4.93,4.93,0,0,1,.17,1.4A3.9,3.9,0,0,1,47.1,9.09Z"/><rect x="50.48" y="0.45" width="2.19" height="1.71"/><polygon points="50.52 11.71 52.64 11.71 52.62 3.48 50.52 3.48 50.52 11.71"/><path d="M61.12,5.45A3.46,3.46,0,0,0,59.9,3.76a3.69,3.69,0,0,0-2.2-.59,3.81,3.81,0,0,0-3,1.14,4.8,4.8,0,0,0-1,3.32A5,5,0,0,0,54.22,10a3.44,3.44,0,0,0,1.43,1.47,4.42,4.42,0,0,0,2.16.51,8.41,8.41,0,0,0,1.68-.16,7.21,7.21,0,0,0,1.31-.41V9.55c-.19.09-.42.18-.69.28a6.85,6.85,0,0,1-.87.25,3.93,3.93,0,0,1-1,.11,2.4,2.4,0,0,1-1.87-.68,2.62,2.62,0,0,1-.57-1.45h5.67A7.58,7.58,0,0,0,61.12,5.45Zm-4.47-.4a1.86,1.86,0,0,1,1-.25A1.57,1.57,0,0,1,59,5.37a2.71,2.71,0,0,1,.41,1.28H55.84A3.47,3.47,0,0,1,56,5.9,1.68,1.68,0,0,1,56.65,5.05Z"/><path d="M68.19,8.14a2,2,0,0,0-.61-.7A3.21,3.21,0,0,0,66.75,7c-.3-.09-.58-.18-.86-.25l-.76-.23a1.54,1.54,0,0,1-.56-.33.78.78,0,0,1-.21-.56A.7.7,0,0,1,64.71,5a1.88,1.88,0,0,1,1-.22A2.89,2.89,0,0,1,67,5.07c.36.17.73.36,1.12.57l0-1.7A5.66,5.66,0,0,0,67,3.45a5.77,5.77,0,0,0-1.51-.22,4.84,4.84,0,0,0-1.12.14,3.48,3.48,0,0,0-1.06.46,2.25,2.25,0,0,0-.77.82,2.44,2.44,0,0,0-.3,1.25A2.46,2.46,0,0,0,62.41,7a1.86,1.86,0,0,0,.55.71,2.77,2.77,0,0,0,.76.45,5.4,5.4,0,0,0,.84.26l.84.27A2.12,2.12,0,0,1,66,9a.62.62,0,0,1,.25.53.77.77,0,0,1-.32.62,1.57,1.57,0,0,1-1,.26,3.87,3.87,0,0,1-1-.13A4.32,4.32,0,0,1,63,9.9c-.28-.15-.54-.3-.8-.47v1.88a9.74,9.74,0,0,0,1.21.46A5.45,5.45,0,0,0,65,12a5.23,5.23,0,0,0,1.68-.27,2.76,2.76,0,0,0,1.29-.85,2.36,2.36,0,0,0,.51-1.54A2.41,2.41,0,0,0,68.19,8.14Z"/><polygon points="5.57 17.69 3.33 17.69 3.33 28.69 10.58 28.69 10.58 26.88 5.57 26.88 5.57 17.69"/><path d="M17.59,20.64a4.88,4.88,0,0,0-2.31-.49,4.1,4.1,0,0,0-3,1,4.52,4.52,0,0,0-1,3.33,4.76,4.76,0,0,0,1,3.28,3.9,3.9,0,0,0,3.07,1.14,4,4,0,0,0,3.06-1.14,4.62,4.62,0,0,0,1.06-3.28A5.75,5.75,0,0,0,19,22.1,3.06,3.06,0,0,0,17.59,20.64ZM17.14,26a1.87,1.87,0,0,1-.66.94,2,2,0,0,1-1.18.33,1.73,1.73,0,0,1-1.55-.7,3.51,3.51,0,0,1-.48-2,4.59,4.59,0,0,1,.21-1.5,1.63,1.63,0,0,1,.65-.89,2,2,0,0,1,1.17-.3,2.24,2.24,0,0,1,1.16.28,1.71,1.71,0,0,1,.68.88,4.59,4.59,0,0,1,.22,1.53A4.11,4.11,0,0,1,17.14,26Z"/><polygon points="26.07 20.38 23.86 26.4 21.43 20.38 19.19 20.38 22.67 28.69 24.76 28.69 28.24 20.38 26.07 20.38"/><path d="M35.42,22.44a3.26,3.26,0,0,0-1.22-1.69,3.67,3.67,0,0,0-2.2-.6,3.77,3.77,0,0,0-2.94,1.15,4.74,4.74,0,0,0-1,3.32A5,5,0,0,0,28.52,27,3.49,3.49,0,0,0,30,28.44a4.48,4.48,0,0,0,2.16.5,7.7,7.7,0,0,0,1.67-.16,7,7,0,0,0,1.31-.4V26.53c-.19.09-.41.18-.68.28a6.54,6.54,0,0,1-.88.26,4.46,4.46,0,0,1-1,.11,2.36,2.36,0,0,1-1.86-.69,2.52,2.52,0,0,1-.58-1.44h5.67A7.34,7.34,0,0,0,35.42,22.44ZM31,22a1.87,1.87,0,0,1,1-.26,1.56,1.56,0,0,1,1.34.57,2.68,2.68,0,0,1,.41,1.28H30.14a3.24,3.24,0,0,1,.17-.74A1.6,1.6,0,0,1,31,22Z"/><polygon points="50.16 17.69 47.34 17.69 43.43 22.69 43.43 17.69 41.19 17.69 41.19 28.69 43.43 28.69 43.43 25.2 44.33 24.2 47.65 28.69 50.5 28.69 45.86 22.49 50.16 17.69"/><rect x="51.41" y="17.43" width="2.19" height="1.71"/><polygon points="51.46 20.46 51.46 28.69 53.57 28.69 53.55 20.46 51.46 20.46"/><path d="M60.4,20.6a2.32,2.32,0,0,0-.36-.16,5.45,5.45,0,0,0-.91-.22,4.51,4.51,0,0,0-.73-.07,3.64,3.64,0,0,0-2.95,1.16,4.71,4.71,0,0,0-1,3.15,6.34,6.34,0,0,0,.33,2.22,3.31,3.31,0,0,0,.94,1.37,3.35,3.35,0,0,0,1.37.69,6.17,6.17,0,0,0,1.63.2,6.56,6.56,0,0,0,1.32-.13,4.47,4.47,0,0,0,1.2-.41,2.49,2.49,0,0,0,.87-.68,1.55,1.55,0,0,0,.32-1V16.94H60.4Zm0,5.92c0,.21-.15.36-.46.48a3.61,3.61,0,0,1-1.13.16,2.27,2.27,0,0,1-1.34-.34,1.75,1.75,0,0,1-.68-.93,4.2,4.2,0,0,1-.2-1.39A3.77,3.77,0,0,1,56.84,23a1.64,1.64,0,0,1,.74-.85,2.46,2.46,0,0,1,1.25-.28,3.72,3.72,0,0,1,.79.1,3.1,3.1,0,0,1,.78.31Z"/><path d="M68.84,24.42A3.12,3.12,0,0,0,68,24l-.86-.26c-.28-.07-.53-.15-.76-.23a1.35,1.35,0,0,1-.56-.33.77.77,0,0,1-.22-.56A.7.7,0,0,1,66,22a2,2,0,0,1,1-.22,2.85,2.85,0,0,1,1.23.26c.37.17.74.36,1.13.56l0-1.69a6,6,0,0,0-1.09-.49,5.39,5.39,0,0,0-1.52-.22,4.46,4.46,0,0,0-1.12.14,3.18,3.18,0,0,0-1,.45A2.61,2.61,0,0,0,63.67,24a2.09,2.09,0,0,0,.55.72,3.11,3.11,0,0,0,.77.45c.28.1.56.19.83.26l.84.26a2.46,2.46,0,0,1,.65.32.66.66,0,0,1,.24.54.75.75,0,0,1-.32.62,1.55,1.55,0,0,1-1,.25,4,4,0,0,1-1-.13,4.43,4.43,0,0,1-.9-.35c-.28-.15-.55-.31-.8-.47V28.3a10.64,10.64,0,0,0,1.2.45,5.16,5.16,0,0,0,1.52.19,5.45,5.45,0,0,0,1.67-.26,2.82,2.82,0,0,0,1.3-.85,2.38,2.38,0,0,0,.51-1.54,2.45,2.45,0,0,0-.24-1.17A2.1,2.1,0,0,0,68.84,24.42Z"/></g></g></svg>