<svg width="46" height="51" viewBox="0 0 46 51" fill="none" xmlns="http://www.w3.org/2000/svg">
<path d="M38.0629 9.57252C35.5371 3.93463 29.746 6.10352e-05 23 6.10352e-05C16.254 6.10352e-05 10.4629 3.93463 7.93705 9.57252C6.25313 9.71197 4.92857 11.0766 4.92857 12.7501V19.1251C4.92857 20.7985 6.25313 22.1631 7.93705 22.3026C10.4629 27.9405 16.254 31.8751 23 31.8751C29.746 31.8751 35.5371 27.9405 38.0629 22.3026C39.7469 22.1631 41.0714 20.7985 41.0714 19.1251V12.7501C41.0714 11.0766 39.7469 9.71197 38.0629 9.57252ZM34.5 14.3438V15.9376C34.5 21.2169 30.0848 25.5001 24.6429 25.5001H21.3571C15.9152 25.5001 11.5 21.2169 11.5 15.9376V14.3438C11.5 11.7042 13.7076 9.56256 16.4286 9.56256H29.5714C32.2924 9.56256 34.5 11.7042 34.5 14.3438ZM19.4371 16.2065L18.821 14.0948C18.7286 13.7661 18.4205 13.5469 18.0714 13.5469C17.7223 13.5469 17.4143 13.7661 17.3219 14.0948L16.7058 16.2065L14.529 16.8042C14.1902 16.8938 13.9643 17.1926 13.9643 17.5313C13.9643 17.87 14.1902 18.1688 14.529 18.2585L16.7058 18.8561L17.3219 20.9678C17.4143 21.2965 17.7223 21.5157 18.0714 21.5157C18.4205 21.5157 18.7286 21.2965 18.821 20.9678L19.4371 18.8561L21.6138 18.2585C21.9527 18.1688 22.1786 17.87 22.1786 17.5313C22.1786 17.1926 21.9527 16.8938 21.6138 16.8042L19.4371 16.2065ZM11.5719 31.5264C4.79509 34.1262 0 40.5411 0 48.0417C0 49.6753 1.36563 51.0001 3.04955 51.0001H13.1429V44.6251C13.1429 42.862 14.6112 41.4376 16.4286 41.4376H29.5714C31.3888 41.4376 32.8571 42.862 32.8571 44.6251V51.0001H42.9504C44.6344 51.0001 46 49.6753 46 48.0417C46 40.5411 41.2049 34.1262 34.4281 31.5264C31.204 33.7477 27.2612 35.0626 23 35.0626C18.7388 35.0626 14.796 33.7477 11.5719 31.5264ZM18.0714 44.6251C17.1679 44.6251 16.4286 45.3422 16.4286 46.2188V51.0001H19.7143V46.2188C19.7143 45.3422 18.975 44.6251 18.0714 44.6251ZM27.9286 47.8126C28.3643 47.8126 28.7822 47.6446 29.0902 47.3458C29.3983 47.0469 29.5714 46.6415 29.5714 46.2188C29.5714 45.7961 29.3983 45.3907 29.0902 45.0919C28.7822 44.793 28.3643 44.6251 27.9286 44.6251C27.4929 44.6251 27.075 44.793 26.7669 45.0919C26.4588 45.3907 26.2857 45.7961 26.2857 46.2188C26.2857 46.6415 26.4588 47.0469 26.7669 47.3458C27.075 47.6446 27.4929 47.8126 27.9286 47.8126Z" fill="#BC000A"/>
</svg>
