<svg width="53" height="53" viewBox="0 0 70 70" fill="none" xmlns="http://www.w3.org/2000/svg">
<path d="M25.1562 0C29.3809 0 32.8125 3.43164 32.8125 7.65625V62.3438C32.8125 66.5684 29.3809 70 25.1562 70C21.2051 70 17.9512 67.0059 17.541 63.1504C16.8301 63.3418 16.0781 63.4375 15.3125 63.4375C10.4863 63.4375 6.5625 59.5137 6.5625 54.6875C6.5625 53.6758 6.74023 52.6914 7.05469 51.7891C2.92578 50.2305 0 46.2383 0 41.5625C0 37.2012 2.55664 33.4277 6.26172 31.6777C5.07227 30.1875 4.375 28.3008 4.375 26.25C4.375 22.0527 7.32813 18.5527 11.2656 17.6914C11.0469 16.9395 10.9375 16.1328 10.9375 15.3125C10.9375 11.2246 13.7539 7.7793 17.541 6.82227C17.9512 2.99414 21.2051 0 25.1562 0ZM44.8438 0C48.7949 0 52.0352 2.99414 52.459 6.82227C56.2598 7.7793 59.0625 11.2109 59.0625 15.3125C59.0625 16.1328 58.9531 16.9395 58.7344 17.6914C62.6719 18.5391 65.625 22.0527 65.625 26.25C65.625 28.3008 64.9277 30.1875 63.7383 31.6777C67.4434 33.4277 70 37.2012 70 41.5625C70 46.2383 67.0742 50.2305 62.9453 51.7891C63.2598 52.6914 63.4375 53.6758 63.4375 54.6875C63.4375 59.5137 59.5137 63.4375 54.6875 63.4375C53.9219 63.4375 53.1699 63.3418 52.459 63.1504C52.0488 67.0059 48.7949 70 44.8438 70C40.6191 70 37.1875 66.5684 37.1875 62.3438V7.65625C37.1875 3.43164 40.6191 0 44.8438 0Z" fill="#0095A5"/>
</svg>
