<svg width="36" height="51" viewBox="0 0 36 51" fill="none" xmlns="http://www.w3.org/2000/svg">
<path d="M24.3335 6.37506C24.3335 4.68431 23.6662 3.0628 22.4785 1.86726C21.2907 0.671711 19.6798 6.10352e-05 18.0001 6.10352e-05C16.3204 6.10352e-05 14.7095 0.671711 13.5218 1.86726C12.334 3.0628 11.6668 4.68431 11.6668 6.37506C11.6668 8.06582 12.334 9.68732 13.5218 10.8829C14.7095 12.0784 16.3204 12.7501 18.0001 12.7501C19.6798 12.7501 21.2907 12.0784 22.4785 10.8829C23.6662 9.68732 24.3335 8.06582 24.3335 6.37506ZM14.1309 16.8639C11.7855 16.0272 9.72721 14.4434 8.3121 12.3018L6.38242 9.38326C5.41262 7.91901 3.45325 7.53053 1.98867 8.5067C0.524083 9.48287 0.138145 11.4651 1.10794 12.9294L3.04752 15.838C4.83867 18.5374 7.28294 20.659 10.0835 22.0536V47.8126C10.0835 49.5756 11.4986 51.0001 13.2501 51.0001C15.0017 51.0001 16.4168 49.5756 16.4168 47.8126V38.2501H19.5835V47.8126C19.5835 49.5756 20.9986 51.0001 22.7501 51.0001C24.5017 51.0001 25.9168 49.5756 25.9168 47.8126V22.0735C28.7965 20.659 31.3001 18.4676 33.1111 15.6786L34.9121 12.8995C35.8621 11.4253 35.4465 9.45299 33.9819 8.48678C32.5173 7.52057 30.5579 7.93893 29.598 9.42311L27.797 12.1922C25.6397 15.5192 21.9684 17.5313 18.0199 17.5313C16.773 17.5313 15.5559 17.3321 14.398 16.9536C14.309 16.9237 14.2199 16.8838 14.1309 16.8639Z" fill="#008E2B"/>
</svg>
