<svg width="51" height="51" viewBox="0 0 51 51" fill="none" xmlns="http://www.w3.org/2000/svg">
<path d="M19.125 10.4391C19.125 9.52272 18.5473 8.71588 17.8102 8.16803C16.6547 7.30143 15.9375 6.10612 15.9375 4.78131C15.9375 2.14166 18.7963 6.10352e-05 22.3125 6.10352e-05C25.8287 6.10352e-05 28.6875 2.14166 28.6875 4.78131C28.6875 6.10612 27.9703 7.30143 26.8148 8.16803C26.0777 8.71588 25.5 9.52272 25.5 10.4391C25.5 11.7141 26.5359 12.7501 27.8109 12.7501H33.4688C36.1084 12.7501 38.25 14.8917 38.25 17.5313V23.1891C38.25 24.4641 39.2859 25.5001 40.5609 25.5001C41.4773 25.5001 42.2842 24.9223 42.832 24.1852C43.6986 23.0297 44.8939 22.3126 46.2188 22.3126C48.8584 22.3126 51 25.1714 51 28.6876C51 32.2038 48.8584 35.0626 46.2188 35.0626C44.8939 35.0626 43.6986 34.3454 42.832 33.1899C42.2842 32.4528 41.4773 31.8751 40.5609 31.8751C39.2859 31.8751 38.25 32.911 38.25 34.186V46.2188C38.25 48.8585 36.1084 51.0001 33.4688 51.0001H27.8109C26.5359 51.0001 25.5 49.9641 25.5 48.6891C25.5 47.7727 26.0777 46.9659 26.8148 46.418C27.9703 45.5514 28.6875 44.3561 28.6875 43.0313C28.6875 40.3917 25.8287 38.2501 22.3125 38.2501C18.7963 38.2501 15.9375 40.3917 15.9375 43.0313C15.9375 44.3561 16.6547 45.5514 17.8102 46.418C18.5473 46.9659 19.125 47.7727 19.125 48.6891C19.125 49.9641 18.0891 51.0001 16.8141 51.0001H4.78125C2.1416 51.0001 0 48.8585 0 46.2188V34.186C0 32.911 1.03594 31.8751 2.31094 31.8751C3.22734 31.8751 4.03418 32.4528 4.58203 33.1899C5.44863 34.3454 6.64395 35.0626 7.96875 35.0626C10.6084 35.0626 12.75 32.2038 12.75 28.6876C12.75 25.1714 10.6084 22.3126 7.96875 22.3126C6.64395 22.3126 5.44863 23.0297 4.58203 24.1852C4.03418 24.9223 3.22734 25.5001 2.31094 25.5001C1.03594 25.5001 0 24.4641 0 23.1891V17.5313C0 14.8917 2.1416 12.7501 4.78125 12.7501H16.8141C18.0891 12.7501 19.125 11.7141 19.125 10.4391Z" fill="#E8B100"/>
</svg>
