<svg width="52" height="53" viewBox="0 0 52 53" fill="none" xmlns="http://www.w3.org/2000/svg">
<path d="M30.8386 42.6262C26.2117 42.6262 21.9377 41.1242 18.47 38.5941L5.69828 51.3558C4.43824 52.6158 2.39193 52.6158 1.13189 51.3558C-0.128145 50.0957 -0.128145 48.0494 1.13189 46.7894L13.9037 34.0277C11.3634 30.5601 9.87153 26.286 9.87153 21.6591C9.87153 10.0769 19.2563 0.692076 30.8386 0.692077C42.4209 0.692077 51.8057 10.0769 51.8057 21.6591C51.8057 33.2414 42.4209 42.6262 30.8386 42.6262ZM16.3229 21.6591C16.3229 23.5654 16.6984 25.4529 17.4279 27.214C18.1574 28.9752 19.2266 30.5754 20.5745 31.9233C21.9224 33.2712 23.5226 34.3404 25.2837 35.0699C27.0448 35.7993 28.9324 36.1748 30.8386 36.1748C32.7448 36.1748 34.6324 35.7993 36.3935 35.0699C38.1546 34.3404 39.7548 33.2712 41.1027 31.9233C42.4506 30.5754 43.5198 28.9752 44.2493 27.214C44.9788 25.4529 45.3543 23.5654 45.3543 21.6591C45.3543 19.7529 44.9788 17.8654 44.2493 16.1042C43.5198 14.3431 42.4506 12.7429 41.1027 11.395C39.7548 10.0471 38.1546 8.9779 36.3935 8.24842C34.6324 7.51894 32.7448 7.14348 30.8386 7.14348C28.9324 7.14348 27.0448 7.51894 25.2837 8.24842C23.5226 8.9779 21.9224 10.0471 20.5745 11.395C19.2266 12.7429 18.1574 14.3431 17.4279 16.1042C16.6984 17.8654 16.3229 19.7529 16.3229 21.6591Z" fill="#008E2B"/>
</svg>
