<svg width="44" height="51" viewBox="0 0 44 51" fill="none" xmlns="http://www.w3.org/2000/svg">
<path d="M22 25.5001C25.3341 25.5001 28.5317 24.1568 30.8893 21.7657C33.2469 19.3746 34.5714 16.1316 34.5714 12.7501C34.5714 9.36855 33.2469 6.12554 30.8893 3.73445C28.5317 1.34336 25.3341 6.10352e-05 22 6.10352e-05C18.6658 6.10352e-05 15.4683 1.34336 13.1107 3.73445C10.7531 6.12554 9.42857 9.36855 9.42857 12.7501C9.42857 16.1316 10.7531 19.3746 13.1107 21.7657C15.4683 24.1568 18.6658 25.5001 22 25.5001ZM12.5714 30.9985C5.30357 33.16 0 39.9733 0 48.0417C0 49.6753 1.30625 51.0001 2.91696 51.0001H41.083C42.6937 51.0001 44 49.6753 44 48.0417C44 39.9733 38.6964 33.16 31.4286 30.9985V36.0587C34.1393 36.7659 36.1429 39.2661 36.1429 42.2344V46.2188C36.1429 47.0954 35.4357 47.8126 34.5714 47.8126H33C32.1357 47.8126 31.4286 47.0954 31.4286 46.2188C31.4286 45.3422 32.1357 44.6251 33 44.6251V42.2344C33 40.4714 31.5955 39.0469 29.8571 39.0469C28.1187 39.0469 26.7143 40.4714 26.7143 42.2344V44.6251C27.5786 44.6251 28.2857 45.3422 28.2857 46.2188C28.2857 47.0954 27.5786 47.8126 26.7143 47.8126H25.1429C24.2786 47.8126 23.5714 47.0954 23.5714 46.2188V42.2344C23.5714 39.2661 25.575 36.7659 28.2857 36.0587V30.371C27.6964 30.3112 27.0973 30.2813 26.4884 30.2813H17.5116C16.9027 30.2813 16.3036 30.3112 15.7143 30.371V36.8854C17.983 37.5727 19.6429 39.7044 19.6429 42.2344C19.6429 45.3124 17.1777 47.8126 14.1429 47.8126C11.108 47.8126 8.64286 45.3124 8.64286 42.2344C8.64286 39.7044 10.3027 37.5727 12.5714 36.8854V30.9985ZM14.1429 44.6251C14.768 44.6251 15.3676 44.3732 15.8096 43.9249C16.2517 43.4765 16.5 42.8685 16.5 42.2344C16.5 41.6004 16.2517 40.9923 15.8096 40.544C15.3676 40.0957 14.768 39.8438 14.1429 39.8438C13.5177 39.8438 12.9182 40.0957 12.4761 40.544C12.0341 40.9923 11.7857 41.6004 11.7857 42.2344C11.7857 42.8685 12.0341 43.4765 12.4761 43.9249C12.9182 44.3732 13.5177 44.6251 14.1429 44.6251Z" fill="#0095A5"/>
</svg>
