<svg width="22" height="22" viewBox="0 0 22 22" fill="none" xmlns="http://www.w3.org/2000/svg">
<path d="M7.12454e-05 10.8877C-0.00412146 10.6264 0.177003 10.413 0.473008 10.2757C2.02011 9.55687 3.56722 8.83835 5.11433 8.1201C5.22411 8.074 5.31184 7.98716 5.35918 7.87775C6.07669 6.32393 6.79686 4.77152 7.51968 3.2205C7.69536 2.84248 8.00981 2.68413 8.38589 2.77149C8.61481 2.82442 8.73305 2.98781 8.82445 3.18522C9.16238 3.91662 9.50143 4.64775 9.8416 5.37859C10.2336 6.22327 10.6235 7.0692 11.0214 7.91135C11.0636 7.9922 11.1306 8.0573 11.2126 8.097C12.7715 8.82841 14.3316 9.55645 15.8929 10.2811C16.321 10.4806 16.4711 10.8486 16.2845 11.2447C16.2007 11.4249 16.0397 11.5265 15.8653 11.6072C14.319 12.3271 12.7722 13.046 11.2248 13.764C11.1249 13.8075 11.0457 13.8878 11.0034 13.9883C10.2845 15.5413 9.56306 17.093 8.83912 18.6434C8.7385 18.8597 8.60224 19.0399 8.35445 19.0987C8.00478 19.1827 7.69116 19.0194 7.52639 18.6653C7.03137 17.6015 6.53747 16.5384 6.04469 15.476C5.81283 14.9779 5.58601 14.4776 5.34577 13.9832C5.29999 13.8927 5.22655 13.8191 5.13613 13.7732C3.54961 13.0281 1.96114 12.2875 0.370706 11.5513C0.119982 11.4345 -0.00160584 11.2426 7.12454e-05 10.8877Z" fill="#0095A5"/>
<path d="M21.9887 4.12945C21.9845 4.38146 21.8789 4.51839 21.6038 4.62004C20.8634 4.89431 20.123 5.16901 19.3817 5.43825C19.3375 5.45136 19.2972 5.4752 19.2645 5.50767C19.2317 5.54013 19.2074 5.5802 19.1939 5.62432C18.9213 6.37701 18.6457 7.12843 18.3671 7.8786C18.2547 8.1827 18.014 8.30282 17.7059 8.21798C17.5168 8.1659 17.4334 8.01889 17.3705 7.85214C17.0975 7.11079 16.8254 6.36987 16.5541 5.626C16.5413 5.5818 16.5177 5.54144 16.4857 5.50849C16.4536 5.47553 16.4139 5.45097 16.3701 5.43699C15.6389 5.16733 14.9098 4.89095 14.1807 4.6171C14.0129 4.55325 13.8478 4.48101 13.7828 4.29032C13.6868 4.0089 13.797 3.772 14.1006 3.65146C14.5383 3.47715 14.981 3.31544 15.4217 3.15163C15.7399 3.0315 16.0602 2.91767 16.3743 2.78788C16.4511 2.75314 16.5125 2.69123 16.5466 2.61399C16.8363 1.86425 17.1168 1.1082 17.4002 0.352154C17.4786 0.142141 17.6157 0.00983267 17.8505 0.000592101C18.0853 -0.00864847 18.2421 0.0896371 18.3394 0.339973C18.531 0.832243 18.7138 1.32829 18.8995 1.82308C18.9972 2.08266 19.0979 2.34098 19.1888 2.60307C19.2028 2.64998 19.2283 2.69265 19.2629 2.7272C19.2976 2.76174 19.3403 2.78708 19.3872 2.8009C20.1349 3.07224 20.881 3.3468 21.6256 3.62458C21.8919 3.72454 21.9933 3.86987 21.9887 4.12945Z" fill="#0095A5"/>
<path d="M17.8748 21.9999C17.6153 21.9965 17.474 21.8945 17.3754 21.6277C17.0996 20.8818 16.8237 20.1358 16.5533 19.3882C16.5402 19.344 16.5165 19.3038 16.4842 19.271C16.452 19.2381 16.4122 19.2138 16.3684 19.2C15.6276 18.9275 14.8879 18.6513 14.1492 18.3713C13.8238 18.2486 13.7031 18.0378 13.7756 17.7438C13.823 17.5518 13.9651 17.4653 14.1324 17.4023L15.2925 16.9654C15.6451 16.8327 15.996 16.6962 16.3507 16.5694C16.3999 16.5553 16.4449 16.5293 16.4815 16.4935C16.5181 16.4577 16.5452 16.4133 16.5604 16.3644C16.8325 15.623 17.1168 14.8859 17.3905 14.145C17.4744 13.9156 17.6157 13.7711 17.8685 13.7602C18.0924 13.751 18.2584 13.8804 18.3603 14.1488C18.533 14.6032 18.7016 15.0598 18.8722 15.5155C18.9804 15.8045 19.0819 16.096 19.2018 16.3803C19.2363 16.4574 19.2979 16.519 19.3749 16.5534C20.1296 16.8394 20.8843 17.1137 21.639 17.3964C22.0071 17.5346 22.1186 17.963 21.8566 18.2335C21.7881 18.2974 21.7067 18.3459 21.618 18.3759C20.8782 18.6528 20.1376 18.9257 19.3963 19.1945C19.347 19.2091 19.302 19.2358 19.2654 19.272C19.2288 19.3083 19.2018 19.3531 19.1867 19.4024C18.9167 20.1501 18.6416 20.896 18.3658 21.642C18.2697 21.9016 18.1272 22.0032 17.8748 21.9999Z" fill="#0095A5"/>
</svg>
